<?xml version="1.0" encoding="iso-8859-1"?>
<!-- Generator: Adobe Illustrator 19.0.0, SVG Export Plug-In . SVG Version: 6.00 Build 0)  -->
<svg version="1.1" id="Layer_1" xmlns="http://www.w3.org/2000/svg" xmlns:xlink="http://www.w3.org/1999/xlink" x="0px" y="0px"
	 viewBox="0 0 512 512" style="enable-background:new 0 0 512 512;" xml:space="preserve">
<g>
	<g>
		<path d="M256,0c-69.139,0-125.388,56.249-125.388,125.388S186.861,250.775,256,250.775s125.388-56.249,125.388-125.388
			S325.139,0,256,0z M256,219.429c-51.854,0-94.041-42.187-94.041-94.041S204.146,31.347,256,31.347s94.041,42.187,94.041,94.041
			C350.041,177.242,307.854,219.429,256,219.429z"/>
	</g>
</g>
<g>
	<g>
		<path d="M256,282.122c-118.112,0-214.204,96.092-214.204,214.204V512h428.408v-15.673
			C470.204,378.214,374.112,282.122,256,282.122z M73.808,480.653C81.785,387.136,160.452,313.469,256,313.469
			s174.215,73.666,182.192,167.184H73.808z"/>
	</g>
</g>
<g>
</g>
<g>
</g>
<g>
</g>
<g>
</g>
<g>
</g>
<g>
</g>
<g>
</g>
<g>
</g>
<g>
</g>
<g>
</g>
<g>
</g>
<g>
</g>
<g>
</g>
<g>
</g>
<g>
</g>
</svg>
